<svg width="22" height="22" fill="none" xmlns="http://www.w3.org/2000/svg"><g clip-path="url(#a)"><path d="M0 14.667h22v6.754c0 .32-.17.58-.38.58H.38c-.21 0-.38-.26-.38-.58v-6.754Z" fill="#73AF00" style="fill:color(display-p3 .451 .6863 0);fill-opacity:1"/><path d="M.38 0h21.24c.21 0 .38.26.38.579v6.754H0V.58C0 .259.17 0 .38 0Z" fill="#FF4B55" style="fill:color(display-p3 1 .2941 .3333);fill-opacity:1"/><path d="M22 7.333H0v7.334h22V7.333Z" fill="#fff" style="fill:#fff;fill-opacity:1"/><path d="M8.421 14.423c.373-.188.592-.497.708-.721.668.437 1.241.288 1.54.149.29-.137.53-.36.69-.586.16.227.4.45.69.586.3.14.872.287 1.54-.149.117.224.335.533.708.721.215.108.452.163.709.163.264 0 .55-.057.854-.171l-.148-.395c-.485.181-.896.191-1.222.029-.456-.228-.608-.729-.61-.733l-.088-.311-.249.207c-.439.365-.893.455-1.314.257-.428-.2-.66-.606-.66-.728v-1.82a.58.58 0 0 1 .764-.289l.261.118-.039-.284a1.215 1.215 0 0 0-1.196-1.045c-.6 0-1.113.45-1.196 1.045l-.04.284.261-.118a.572.572 0 0 1 .764.29v1.82c0 .12-.23.526-.659.727-.42.198-.875.108-1.314-.257l-.247-.205-.09.308c-.002.005-.155.506-.61.734-.327.162-.738.153-1.223-.03l-.148.396c.305.114.59.17.855.17.257 0 .494-.053.71-.162Zm2.2-4.159a.825.825 0 0 0-.075.003.896.896 0 0 1 .813-.53c.356 0 .672.216.813.53a.901.901 0 0 0-.813.385.895.895 0 0 0-.738-.388ZM7.708 15.764l.134.4c.896-.3 2.179-.471 3.517-.471 1.339 0 2.621.171 3.517.47l.134-.4c-.938-.312-2.268-.492-3.65-.492-1.383 0-2.714.18-3.651.493Z" fill="#FFCD5A" style="fill:color(display-p3 1 .8039 .3529);fill-opacity:1"/><path d="M11.36 14.85c.22 0 .413-.13.544-.306a.843.843 0 0 0-.335-.102l.001-.014a.506.506 0 0 0-.21-.422.506.506 0 0 0-.211.422l.002.014a.842.842 0 0 0-.336.102c.13.176.325.306.545.306ZM9.424 15.049c.216-.044.38-.21.473-.409a.843.843 0 0 0-.35-.033v-.014a.505.505 0 0 0-.291-.37.506.506 0 0 0-.122.455c0 .004.003.008.004.013a.841.841 0 0 0-.308.167c.163.146.379.235.594.19ZM13.463 14.222a.505.505 0 0 0-.29.371c-.002.005 0 .01-.002.014a.843.843 0 0 0-.349.033c.094.199.257.365.473.409.215.044.43-.045.595-.191a.844.844 0 0 0-.309-.167l.005-.014a.506.506 0 0 0-.123-.455ZM11.303 6.458l-.142.426-.449.003a.06.06 0 0 0-.035.11l.36.266-.135.428a.06.06 0 0 0 .093.068l.365-.261.366.26a.06.06 0 0 0 .092-.067l-.135-.428.361-.266a.06.06 0 0 0-.036-.11l-.448-.003-.142-.426a.06.06 0 0 0-.115 0ZM8.734 7.16l-.143.427-.448.003a.06.06 0 0 0-.036.11l.361.266-.135.428a.06.06 0 0 0 .093.067l.365-.26.365.26a.06.06 0 0 0 .093-.067l-.136-.428.362-.267a.06.06 0 0 0-.036-.109l-.449-.003-.142-.426a.06.06 0 0 0-.114 0ZM6.845 9.058l-.142.426-.449.003a.06.06 0 0 0-.035.11l.36.266-.135.428a.06.06 0 0 0 .093.068l.365-.261.365.26a.06.06 0 0 0 .093-.067l-.135-.428.361-.266a.06.06 0 0 0-.035-.11l-.45-.003-.141-.426a.06.06 0 0 0-.115 0ZM6.151 11.623l-.142.426-.449.004a.06.06 0 0 0-.035.109l.36.266-.135.428a.06.06 0 0 0 .093.068l.365-.261.366.26a.06.06 0 0 0 .092-.067l-.135-.428.361-.266a.06.06 0 0 0-.035-.11l-.45-.003-.141-.426a.06.06 0 0 0-.115 0ZM13.99 7.16l.141.427.45.003a.06.06 0 0 1 .035.11l-.361.266.135.428a.06.06 0 0 1-.093.067l-.365-.26-.365.26a.06.06 0 0 1-.093-.067l.135-.428-.36-.267a.06.06 0 0 1 .035-.109l.449-.003.142-.426a.06.06 0 0 1 .114 0ZM15.878 9.058l.142.426.449.003a.06.06 0 0 1 .035.11l-.36.266.135.428a.06.06 0 0 1-.093.068l-.365-.261-.366.26a.06.06 0 0 1-.092-.067l.135-.428-.361-.266a.06.06 0 0 1 .035-.11l.45-.003.141-.426a.06.06 0 0 1 .115 0ZM16.572 11.623l.142.426.449.004a.06.06 0 0 1 .035.109l-.36.266.135.428a.06.06 0 0 1-.093.068l-.365-.261-.366.26a.06.06 0 0 1-.093-.067l.136-.428-.361-.266a.06.06 0 0 1 .035-.11l.45-.003.141-.426a.06.06 0 0 1 .115 0Z" fill="#FFCD5A" style="fill:color(display-p3 1 .8039 .3529);fill-opacity:1"/></g><defs><clipPath id="a"><rect width="22" height="22" rx="11" fill="#fff" style="fill:#fff;fill-opacity:1"/></clipPath></defs></svg>