<svg xmlns="http://www.w3.org/2000/svg" viewBox="0 8.84000015258789 256.9800109863281 46.36000061035156" data-asc="0.9052734375" width="256.9800109863281" height="46.36000061035156"><defs/><g><g fill="#f5f5f5"><g transform="translate(0, 0)"><path d="M0 33.76L4.47 33.37Q4.79 36.06 5.94 37.78Q7.10 39.50 9.55 40.56Q11.99 41.63 15.04 41.63Q17.75 41.63 19.82 40.82Q21.90 40.01 22.91 38.61Q23.93 37.21 23.93 35.55Q23.93 33.86 22.95 32.60Q21.97 31.35 19.73 30.49Q18.29 29.93 13.35 28.75Q8.42 27.56 6.45 26.51Q3.88 25.17 2.62 23.18Q1.37 21.19 1.37 18.73Q1.37 16.02 2.91 13.66Q4.44 11.30 7.40 10.08Q10.35 8.86 13.96 8.86Q17.94 8.86 20.98 10.14Q24.02 11.43 25.66 13.92Q27.29 16.41 27.42 19.56L22.88 19.90Q22.51 16.50 20.40 14.77Q18.29 13.04 14.16 13.04Q9.86 13.04 7.90 14.61Q5.93 16.19 5.93 18.41Q5.93 20.34 7.32 21.58Q8.69 22.83 14.47 24.13Q20.24 25.44 22.39 26.42Q25.51 27.86 27.00 30.07Q28.49 32.28 28.49 35.16Q28.49 38.01 26.86 40.54Q25.22 43.07 22.16 44.47Q19.09 45.87 15.26 45.87Q10.40 45.87 7.12 44.46Q3.83 43.04 1.97 40.20Q0.10 37.35 0 33.76ZM34.40 45.26L34.40 9.47L38.79 9.47L38.79 22.31Q41.87 18.75 46.56 18.75Q49.44 18.75 51.56 19.89Q53.69 21.02 54.60 23.02Q55.52 25.02 55.52 28.83L55.52 45.26L51.12 45.26L51.12 28.83Q51.12 25.54 49.69 24.04Q48.27 22.53 45.65 22.53Q43.70 22.53 41.98 23.55Q40.26 24.56 39.53 26.29Q38.79 28.03 38.79 31.08L38.79 45.26L34.40 45.26ZM60.57 32.30Q60.57 25.10 64.58 21.63Q67.92 18.75 72.73 18.75Q78.08 18.75 81.47 22.25Q84.86 25.76 84.86 31.93Q84.86 36.94 83.36 39.81Q81.86 42.68 78.99 44.26Q76.12 45.85 72.73 45.85Q67.29 45.85 63.93 42.36Q60.57 38.87 60.57 32.30M65.09 32.30Q65.09 37.28 67.26 39.76Q69.43 42.24 72.73 42.24Q76.00 42.24 78.17 39.75Q80.35 37.26 80.35 32.15Q80.35 27.34 78.16 24.87Q75.98 22.39 72.73 22.39Q69.43 22.39 67.26 24.85Q65.09 27.32 65.09 32.30ZM90.01 55.20L90.01 19.34L94.02 19.34L94.02 22.71Q95.43 20.73 97.22 19.74Q99.00 18.75 101.54 18.75Q104.86 18.75 107.40 20.46Q109.94 22.17 111.23 25.28Q112.52 28.39 112.52 32.10Q112.52 36.08 111.10 39.27Q109.67 42.46 106.95 44.15Q104.22 45.85 101.22 45.85Q99.02 45.85 97.28 44.92Q95.53 43.99 94.41 42.58L94.41 55.20L90.01 55.20M93.99 32.45Q93.99 37.45 96.02 39.84Q98.05 42.24 100.93 42.24Q103.86 42.24 105.94 39.76Q108.03 37.28 108.03 32.08Q108.03 27.12 105.99 24.66Q103.96 22.19 101.12 22.19Q98.32 22.19 96.15 24.82Q93.99 27.44 93.99 32.45ZM116.94 27.83Q116.94 18.92 121.73 13.88Q126.51 8.84 134.08 8.84Q139.04 8.84 143.02 11.21Q147.00 13.57 149.08 17.81Q151.17 22.05 151.17 27.42Q151.17 32.86 148.97 37.16Q146.78 41.46 142.75 43.66Q138.72 45.87 134.06 45.87Q129.00 45.87 125.02 43.43Q121.04 40.99 118.99 36.77Q116.94 32.54 116.94 27.83M121.83 27.91Q121.83 34.38 125.31 38.10Q128.78 41.82 134.03 41.82Q139.38 41.82 142.83 38.06Q146.29 34.30 146.29 27.39Q146.29 23.02 144.81 19.76Q143.33 16.50 140.49 14.71Q137.65 12.92 134.11 12.92Q129.08 12.92 125.45 16.37Q121.83 19.82 121.83 27.91ZM156.71 45.26L156.71 19.34L160.67 19.34L160.67 23.02Q163.53 18.75 168.92 18.75Q171.26 18.75 173.23 19.59Q175.20 20.43 176.17 21.80Q177.15 23.17 177.54 25.05Q177.78 26.27 177.78 29.32L177.78 45.26L173.39 45.26L173.39 29.49Q173.39 26.81 172.88 25.48Q172.36 24.15 171.06 23.35Q169.75 22.56 167.99 22.56Q165.19 22.56 163.15 24.34Q161.11 26.12 161.11 31.10L161.11 45.26L156.71 45.26ZM184.42 45.26L184.42 9.47L188.82 9.47L188.82 45.26L184.42 45.26ZM195.65 14.53L195.65 9.47L200.05 9.47L200.05 14.53L195.65 14.53M195.65 45.26L195.65 19.34L200.05 19.34L200.05 45.26L195.65 45.26ZM206.74 45.26L206.74 19.34L210.69 19.34L210.69 23.02Q213.55 18.75 218.95 18.75Q221.29 18.75 223.25 19.59Q225.22 20.43 226.20 21.80Q227.17 23.17 227.56 25.05Q227.81 26.27 227.81 29.32L227.81 45.26L223.41 45.26L223.41 29.49Q223.41 26.81 222.90 25.48Q222.39 24.15 221.08 23.35Q219.78 22.56 218.02 22.56Q215.21 22.56 213.17 24.34Q211.13 26.12 211.13 31.10L211.13 45.26L206.74 45.26ZM252.29 36.91L256.84 37.48Q255.76 41.46 252.86 43.65Q249.95 45.85 245.43 45.85Q239.75 45.85 236.41 42.35Q233.08 38.84 233.08 32.52Q233.08 25.98 236.45 22.36Q239.82 18.75 245.19 18.75Q250.39 18.75 253.69 22.29Q256.98 25.83 256.98 32.25Q256.98 32.64 256.96 33.42L237.62 33.42Q237.87 37.70 240.04 39.97Q242.21 42.24 245.46 42.24Q247.88 42.24 249.58 40.97Q251.29 39.70 252.29 36.91M237.87 29.81L252.34 29.81Q252.05 26.54 250.68 24.90Q248.58 22.36 245.24 22.36Q242.21 22.36 240.15 24.39Q238.09 26.42 237.87 29.81Z"/></g><g transform="translate(0, 60.595703125)"><path d=""/></g></g></g></svg>